STARTFONT 2.1
FONT -sun-arioso-medium-r-normal--24-240-75-75-p-124-adobe-fontspecific
SIZE 24 75 75
FONTBOUNDINGBOX 30 28 -4 -5

STARTPROPERTIES 28
FOUNDRY "sun"
FAMILY_NAME "arioso"
WEIGHT_NAME "medium"
SLANT "r"
SETWIDTH_NAME "normal"
ADD_STYLE_NAME ""
PIXEL_SIZE 25
POINT_SIZE 240
RESOLUTION_X 75
RESOLUTION_Y 75
SPACING "p"
AVERAGE_WIDTH 124
CHARSET_REGISTRY "adobe"
CHARSET_ENCODING "fontspecific"
COPYRIGHT "© 1999 Sun Microsystems, Inc."
RAW_PIXELSIZE 1000
RAW_POINTSIZE 964
RAW_ASCENT 897
RAW_DESCENT 198
RAW_AVERAGE_WIDTH 4987
FACE_NAME "AriosoNormal"
_XMBDFED_INFO "Edited with xmbdfed 2.4."
WEIGHT 10
X_HEIGHT -2
QUAD_WIDTH 13
DEFAULT_CHAR 4
FONT_DESCENT 5
FONT_ASCENT 23
ENDPROPERTIES

CHARS 195

STARTCHAR char32
ENCODING 32
SWIDTH 21 0
DWIDTH 6 0
BBX 0 0 0 0
BITMAP
ENDCHAR

STARTCHAR char33
ENCODING 33
SWIDTH 28 0
DWIDTH 8 0
BBX 7 16 2 0
BITMAP
02
0C
0C
08
08
18
10
10
20
20
20
20
00
00
C0
C0
ENDCHAR

STARTCHAR char34
ENCODING 34
SWIDTH 28 0
DWIDTH 8 0
BBX 7 5 3 13
BITMAP
66
26
24
C8
88
ENDCHAR

STARTCHAR char35
ENCODING 35
SWIDTH 13 0
DWIDTH 14 0
BBX 12 18 1 0
BITMAP
0C60
0C40
0840
08C0
18C0
FFF0
1FF0
18C0
1880
1080
1180
FFE0
FFE0
3180
3180
3100
2100
2300
ENDCHAR

STARTCHAR char36
ENCODING 36
SWIDTH 10 0
DWIDTH 13 0
BBX 13 20 0 -2
BITMAP
0080
0770
0898
1088
1080
1080
1900
0900
0E00
0700
0380
02C0
0440
0440
0440
8840
8880
6F00
1000
1000
ENDCHAR

STARTCHAR char37
ENCODING 37
SWIDTH 31 0
DWIDTH 19 0
BBX 16 15 1 0
BITMAP
1C10
2220
4220
4240
C640
8484
848B
8911
9921
6261
0243
0442
0446
0844
0878
ENDCHAR

STARTCHAR char38
ENCODING 38
SWIDTH 6 0
DWIDTH 12 0
BBX 11 14 0 0
BITMAP
0380
0280
0480
0500
0500
0600
1A20
2220
4140
C140
8180
8080
83C0
7C60
ENDCHAR

STARTCHAR char39
ENCODING 39
SWIDTH 17 0
DWIDTH 5 0
BBX 4 5 2 13
BITMAP
20
20
40
C0
C0
ENDCHAR

STARTCHAR char40
ENCODING 40
SWIDTH 32 0
DWIDTH 9 0
BBX 8 22 2 -4
BITMAP
01
02
04
04
08
18
10
30
60
60
60
C0
C0
C0
80
80
80
80
80
80
80
80
ENDCHAR

STARTCHAR char41
ENCODING 41
SWIDTH 32 0
DWIDTH 9 0
BBX 9 22 -2 -4
BITMAP
0080
0080
0100
0100
0100
0100
0100
0100
0300
0300
0300
0600
0600
0400
0C00
0800
1800
1000
2000
2000
4000
8000
ENDCHAR

STARTCHAR char42
ENCODING 42
SWIDTH 32 0
DWIDTH 9 0
BBX 8 8 2 10
BITMAP
2C
6C
2B
1F
FA
D6
36
30
ENDCHAR

STARTCHAR char43
ENCODING 43
SWIDTH 21 0
DWIDTH 16 0
BBX 14 14 2 0
BITMAP
0200
0200
0200
0200
0200
0200
FFFC
0200
0200
0200
0200
0200
0200
0200
ENDCHAR

STARTCHAR char44
ENCODING 44
SWIDTH 21 0
DWIDTH 6 0
BBX 3 5 0 -3
BITMAP
20
60
20
40
40
ENDCHAR

STARTCHAR char45
ENCODING 45
SWIDTH 32 0
DWIDTH 9 0
BBX 7 1 0 5
BITMAP
FE
ENDCHAR

STARTCHAR char46
ENCODING 46
SWIDTH 21 0
DWIDTH 6 0
BBX 2 2 2 0
BITMAP
C0
C0
ENDCHAR

STARTCHAR char47
ENCODING 47
SWIDTH 6 0
DWIDTH 12 0
BBX 12 17 -1 0
BITMAP
0010
0020
0040
0040
0080
0080
0100
0200
0200
0400
0400
0800
1000
1000
2000
4000
4000
ENDCHAR

STARTCHAR char48
ENCODING 48
SWIDTH 10 0
DWIDTH 13 0
BBX 11 15 0 0
BITMAP
07C0
0820
1820
1020
3020
6020
6060
4060
4060
C0C0
C0C0
4180
4100
4300
7C00
ENDCHAR

STARTCHAR char49
ENCODING 49
SWIDTH 10 0
DWIDTH 13 0
BBX 7 15 3 0
BITMAP
02
0E
34
4C
8C
08
18
18
10
30
20
20
60
40
C0
ENDCHAR

STARTCHAR char50
ENCODING 50
SWIDTH 10 0
DWIDTH 13 0
BBX 13 15 -1 0
BITMAP
01F0
0618
0418
0818
0838
0830
0860
00C0
0380
0600
1C00
3000
6000
4830
FFC0
ENDCHAR

STARTCHAR char51
ENCODING 51
SWIDTH 10 0
DWIDTH 13 0
BBX 11 15 0 0
BITMAP
0FC0
0060
0060
0060
00C0
0100
0E00
0100
0080
00C0
00C0
0180
0180
8300
7C00
ENDCHAR

STARTCHAR char52
ENCODING 52
SWIDTH 10 0
DWIDTH 13 0
BBX 13 15 -1 0
BITMAP
0010
0010
0070
00A0
0120
0260
0440
0840
10C0
2080
4080
FFF0
0100
0300
0300
ENDCHAR

STARTCHAR char53
ENCODING 53
SWIDTH 10 0
DWIDTH 13 0
BBX 12 15 0 0
BITMAP
07E0
0800
0800
0800
1000
1F00
1080
0040
0040
0040
00C0
0080
0180
0300
7C00
ENDCHAR

STARTCHAR char54
ENCODING 54
SWIDTH 10 0
DWIDTH 13 0
BBX 10 16 1 0
BITMAP
0040
0080
0100
0200
0400
1800
3E00
3180
6080
C080
C080
8180
8180
8100
4200
7C00
ENDCHAR

STARTCHAR char55
ENCODING 55
SWIDTH 10 0
DWIDTH 13 0
BBX 12 15 1 0
BITMAP
1F00
7FE0
4020
0040
0080
0180
0100
0200
0600
0C00
0800
1800
3000
6000
6000
ENDCHAR

STARTCHAR char56
ENCODING 56
SWIDTH 10 0
DWIDTH 13 0
BBX 12 15 0 0
BITMAP
03C0
0430
0810
0810
0820
0C40
0680
0700
3B00
4180
8080
8080
8080
4100
3E00
ENDCHAR

STARTCHAR char57
ENCODING 57
SWIDTH 10 0
DWIDTH 13 0
BBX 10 16 1 -1
BITMAP
0F80
1040
3040
6040
6040
40C0
40C0
4180
2100
3F00
0600
0C00
1800
2000
4000
8000
ENDCHAR

STARTCHAR char58
ENCODING 58
SWIDTH 25 0
DWIDTH 7 0
BBX 5 9 1 0
BITMAP
18
18
00
00
00
00
00
C0
C0
ENDCHAR

STARTCHAR char59
ENCODING 59
SWIDTH 25 0
DWIDTH 7 0
BBX 5 12 1 -3
BITMAP
18
18
00
00
00
00
00
20
60
40
40
80
ENDCHAR

STARTCHAR char60
ENCODING 60
SWIDTH 17 0
DWIDTH 15 0
BBX 13 13 1 0
BITMAP
0008
0038
00E0
0780
1E00
7800
E000
F000
3C00
0700
01E0
0078
0018
ENDCHAR

STARTCHAR char61
ENCODING 61
SWIDTH 21 0
DWIDTH 16 0
BBX 16 6 1 4
BITMAP
FFFF
0000
0000
0000
0000
FFFF
ENDCHAR

STARTCHAR char62
ENCODING 62
SWIDTH 17 0
DWIDTH 15 0
BBX 13 13 1 0
BITMAP
8000
E000
3800
0F00
03C0
00F0
0038
0078
01E0
0700
3C00
F000
C000
ENDCHAR

STARTCHAR char63
ENCODING 63
SWIDTH 35 0
DWIDTH 10 0
BBX 9 16 1 0
BITMAP
0F00
1080
2080
2180
4300
0700
0C00
1800
3000
4000
4000
7800
0000
0000
C000
C000
ENDCHAR

STARTCHAR char64
ENCODING 64
SWIDTH 16 0
DWIDTH 25 0
BBX 18 19 4 0
BITMAP
01F000
07F800
1C0E00
300700
600180
63ED80
C7FCC0
CE1CC0
CC18C0
DC18C0
D818C0
D83180
D83100
DC7300
4FFE00
679980
380300
1FFC00
07F000
ENDCHAR

STARTCHAR char65
ENCODING 65
SWIDTH 9 0
DWIDTH 23 0
BBX 23 17 -1 0
BITMAP
00001C
000034
000028
000048
000058
000090
0000B0
000130
07FFFC
180260
200260
4004C0
C008C0
C011C0
C02180
C0C184
7F00F8
ENDCHAR

STARTCHAR char66
ENCODING 66
SWIDTH 35 0
DWIDTH 20 0
BBX 19 17 -1 0
BITMAP
03FF80
0C08C0
101860
201060
401060
C030C0
803300
802600
806100
806080
4040C0
4040E0
0080C0
0080C0
030180
0C7E00
1F8000
ENDCHAR

STARTCHAR char67
ENCODING 67
SWIDTH 17 0
DWIDTH 15 0
BBX 16 17 -1 0
BITMAP
01FE
0301
0401
0C01
18C1
1103
3202
7404
680C
E808
C810
CC60
C380
4000
4000
2006
1FF8
ENDCHAR

STARTCHAR char68
ENCODING 68
SWIDTH 6 0
DWIDTH 22 0
BBX 22 17 -1 0
BITMAP
01FFA0
060210
080408
100404
200C04
401804
401804
80100C
80300C
803018
802018
806030
006020
004040
008180
018600
03F800
ENDCHAR

STARTCHAR char69
ENCODING 69
SWIDTH 17 0
DWIDTH 15 0
BBX 14 17 0 0
BITMAP
00FC
01C4
0188
0108
0130
0120
0100
0600
0800
3000
6000
C004
C004
C008
C018
4020
3FC0
ENDCHAR

STARTCHAR char70
ENCODING 70
SWIDTH 6 0
DWIDTH 22 0
BBX 24 21 -1 -4
BITMAP
00FFC0
0700FF
080010
100020
200040
2000C0
400080
400180
800180
803FFE
800500
800700
800B00
400A00
401200
401600
002400
002400
004800
005800
006000
ENDCHAR

STARTCHAR char71
ENCODING 71
SWIDTH 2 0
DWIDTH 21 0
BBX 21 22 -1 -5
BITMAP
003FF0
006010
008030
010020
020040
020080
040120
0C0660
0C0860
083040
19C0C0
1E00C0
180080
F80180
180780
0C1D08
07E170
000380
000600
003800
005000
006000
ENDCHAR

STARTCHAR char72
ENCODING 72
SWIDTH 9 0
DWIDTH 23 0
BBX 22 18 -1 0
BITMAP
03E00C
1FF814
200424
400858
8008E0
8019C0
001300
003F00
003604
006604
01EC04
026C04
0CCC04
189808
219808
611830
4618C0
780F00
ENDCHAR

STARTCHAR char73
ENCODING 73
SWIDTH 21 0
DWIDTH 16 0
BBX 16 17 -1 0
BITMAP
07F0
180F
2001
2003
0002
0002
0006
0006
000C
000C
000C
3FF8
4018
8036
8020
40C0
7F00
ENDCHAR

STARTCHAR char74
ENCODING 74
SWIDTH 21 0
DWIDTH 16 0
BBX 17 22 -1 -5
BITMAP
00FF80
030200
040200
080600
100400
200C00
600C00
400C00
C01800
801800
801800
801700
803800
403000
41E000
026000
0C4000
08C000
108000
210000
260000
380000
ENDCHAR

STARTCHAR char75
ENCODING 75
SWIDTH 6 0
DWIDTH 22 0
BBX 22 17 0 0
BITMAP
0FF008
300E10
200420
000C60
000C40
000880
001B00
001E00
001800
001000
003000
003000
006800
004C00
008600
03038C
FC00F0
ENDCHAR

STARTCHAR char76
ENCODING 76
SWIDTH 31 0
DWIDTH 19 0
BBX 20 17 -1 0
BITMAP
0003E0
000420
000820
001820
003020
003020
003040
002080
006100
006200
006400
004000
004000
008000
7FE000
867C70
780F80
ENDCHAR

STARTCHAR char77
ENCODING 77
SWIDTH 20 0
DWIDTH 26 0
BBX 27 17 -1 0
BITMAP
0000F0E0
00011140
000112C0
000234C0
00063480
00042980
000C7100
00087300
00086300
0010E600
0010C600
00218600
00218C00
00410C00
00830C00
818208E0
FE040F00
ENDCHAR

STARTCHAR char78
ENCODING 78
SWIDTH 9 0
DWIDTH 23 0
BBX 24 17 -1 0
BITMAP
01F802
0604FC
080504
100608
200410
400C20
401C60
802860
804840
8058C0
8098C0
80B080
813080
012080
026080
02C046
038078
ENDCHAR

STARTCHAR char79
ENCODING 79
SWIDTH 21 0
DWIDTH 16 0
BBX 15 17 -1 0
BITMAP
02FC
0502
0602
0A02
1202
3402
6002
6006
E004
C004
C00C
C008
C018
C010
4020
20C0
1F00
ENDCHAR

STARTCHAR char80
ENCODING 80
SWIDTH 9 0
DWIDTH 23 0
BBX 23 22 -1 -5
BITMAP
00FFE0
030218
04040C
180804
301806
201806
403006
C03006
802006
80600C
80600C
804018
40C030
00C060
00C0C0
008300
01FC00
018000
010000
030000
020000
020000
ENDCHAR

STARTCHAR char81
ENCODING 81
SWIDTH 17 0
DWIDTH 15 0
BBX 16 21 -1 -4
BITMAP
03F8
0C0C
1806
1006
3006
6006
6006
E00E
C00C
C00C
C018
C010
4030
4020
00C0
7E80
FDC0
0060
0019
000F
0006
ENDCHAR

STARTCHAR char82
ENCODING 82
SWIDTH 35 0
DWIDTH 20 0
BBX 21 17 -1 0
BITMAP
00FFC0
030430
0C0810
181018
303018
203038
406030
C06060
8040C0
804180
80C300
80DC00
80E000
81B000
019C00
010E30
0203C0
ENDCHAR

STARTCHAR char83
ENCODING 83
SWIDTH 13 0
DWIDTH 14 0
BBX 14 17 0 0
BITMAP
00F0
0108
0308
0310
0120
0100
0180
0180
00C0
00C0
1FE0
6078
C060
8060
80C0
8080
7F00
ENDCHAR

STARTCHAR char84
ENCODING 84
SWIDTH 28 0
DWIDTH 18 0
BBX 22 18 -1 -1
BITMAP
0FFFFC
100040
200040
400080
400180
800180
800100
800300
800300
400200
200200
23C600
0C0400
100800
200800
201000
106000
0F8000
ENDCHAR

STARTCHAR char85
ENCODING 85
SWIDTH 6 0
DWIDTH 22 0
BBX 23 17 -1 0
BITMAP
00FC04
07040C
080408
100C38
200830
401830
401070
8030A0
8020E0
806140
8042C0
80C280
808580
418900
411100
012106
01C0F8
ENDCHAR

STARTCHAR char86
ENCODING 86
SWIDTH 6 0
DWIDTH 22 0
BBX 22 17 -1 0
BITMAP
00FE08
03020C
0C040C
18080C
20100C
60300C
40600C
806008
80C018
80C010
81C010
818020
418020
418040
018080
00C300
007C00
ENDCHAR

STARTCHAR char87
ENCODING 87
SWIDTH 20 0
DWIDTH 26 0
BBX 26 17 -1 0
BITMAP
1FF84100
6010C080
401140C0
802180C0
002280C0
006300C0
004500C0
00CA0080
00CA0180
01920180
01960100
01A60300
01460200
03460400
02860800
03063000
0303C000
ENDCHAR

STARTCHAR char88
ENCODING 88
SWIDTH 9 0
DWIDTH 23 0
BBX 24 17 -1 0
BITMAP
01FC1F
060620
180640
300680
600700
400600
C00C00
801802
80FF02
801802
803802
005004
00B004
013008
023010
041860
780FC0
ENDCHAR

STARTCHAR char89
ENCODING 89
SWIDTH 2 0
DWIDTH 21 0
BBX 22 22 -1 -5
BITMAP
07F01C
081018
101030
201030
403070
402060
8060E0
806160
80C140
80C2C0
8182C0
418480
210980
231180
0221F0
024700
03FA00
00C400
008C00
010800
013000
01C000
ENDCHAR

STARTCHAR char90
ENCODING 90
SWIDTH 6 0
DWIDTH 22 0
BBX 22 17 -1 0
BITMAP
007FE0
01803C
021008
041010
041030
081060
0810C0
102180
1027E0
102300
104600
108C00
0F1000
006000
008000
7FF00C
F8FFF0
ENDCHAR

STARTCHAR char91
ENCODING 91
SWIDTH 32 0
DWIDTH 9 0
BBX 11 21 -1 -4
BITMAP
01E0
0180
0100
0300
0300
0600
0600
0400
0C00
0C00
0800
1800
1800
3000
3000
2000
6000
6000
4000
C000
4000
ENDCHAR

STARTCHAR char92
ENCODING 92
SWIDTH 25 0
DWIDTH 7 0
BBX 7 18 0 0
BITMAP
C0
C0
40
60
60
20
30
30
10
18
18
08
0C
0C
04
06
06
02
ENDCHAR

STARTCHAR char93
ENCODING 93
SWIDTH 32 0
DWIDTH 9 0
BBX 11 21 -3 -4
BITMAP
00E0
0060
0040
0040
00C0
0080
0180
0180
0100
0300
0300
0200
0600
0400
0C00
0C00
0800
1800
1800
3000
7000
ENDCHAR

STARTCHAR char94
ENCODING 94
SWIDTH 0 0
DWIDTH 0 0
BBX 5 3 1 19
BITMAP
30
50
48
ENDCHAR

STARTCHAR char95
ENCODING 95
SWIDTH 13 0
DWIDTH 14 0
BBX 14 1 0 -3
BITMAP
FFFC
ENDCHAR

STARTCHAR char96
ENCODING 96
SWIDTH 0 0
DWIDTH 0 0
BBX 4 4 -2 11
BITMAP
E0
60
10
10
ENDCHAR

STARTCHAR char97
ENCODING 97
SWIDTH 6 0
DWIDTH 12 0
BBX 13 10 -1 0
BITMAP
07A0
0860
10C0
30C0
6080
6180
C180
C100
C718
79F0
ENDCHAR

STARTCHAR char98
ENCODING 98
SWIDTH 3 0
DWIDTH 11 0
BBX 10 17 0 0
BITMAP
0600
0C00
0C00
0C00
1800
1800
1200
3600
2500
6500
6500
4500
4600
C200
85C0
9800
E000
ENDCHAR

STARTCHAR char99
ENCODING 99
SWIDTH 32 0
DWIDTH 9 0
BBX 10 10 -1 0
BITMAP
0700
0880
1080
3300
2600
6400
C000
C000
C1C0
7E00
ENDCHAR

STARTCHAR char100
ENCODING 100
SWIDTH 3 0
DWIDTH 11 0
BBX 12 17 0 0
BITMAP
0030
0030
0060
0060
0040
00C0
00C0
0E80
1180
2100
4300
4300
C200
8600
8600
8C00
73C0
ENDCHAR

STARTCHAR char101
ENCODING 101
SWIDTH 28 0
DWIDTH 8 0
BBX 9 10 -1 0
BITMAP
0E00
1200
3200
6400
4C00
D000
E000
C000
C380
7C00
ENDCHAR

STARTCHAR char102
ENCODING 102
SWIDTH 32 0
DWIDTH 9 0
BBX 10 22 -1 -5
BITMAP
00C0
0140
0140
02C0
0280
0480
0500
0500
0E00
0A00
2C00
5800
D000
D000
F000
B180
7E00
6000
6000
6000
C000
4000
ENDCHAR

STARTCHAR char103
ENCODING 103
SWIDTH 6 0
DWIDTH 12 0
BBX 12 15 0 -5
BITMAP
0F40
1080
2080
6180
4100
C100
C300
C200
CE70
F7C0
0600
1C00
2800
5000
6000
ENDCHAR

STARTCHAR char104
ENCODING 104
SWIDTH 3 0
DWIDTH 11 0
BBX 13 17 -1 0
BITMAP
0600
0400
0400
0C00
0800
0800
1800
1080
13C0
3480
2580
6980
5100
5300
6200
A218
41E0
ENDCHAR

STARTCHAR char105
ENCODING 105
SWIDTH 21 0
DWIDTH 6 0
BBX 6 14 0 0
BITMAP
18
18
00
00
10
30
60
60
40
40
C0
80
8C
70
ENDCHAR

STARTCHAR char106
ENCODING 106
SWIDTH 28 0
DWIDTH 8 0
BBX 9 19 -1 -5
BITMAP
0300
0300
0000
0000
0200
3C00
6C00
4C00
8800
1800
3C00
5380
B000
B000
A000
A000
C000
C000
4000
ENDCHAR

STARTCHAR char107
ENCODING 107
SWIDTH 3 0
DWIDTH 11 0
BBX 12 17 0 0
BITMAP
0C00
0C00
0C00
1800
1800
1000
3000
3380
2480
6880
4980
D300
DC00
B000
D800
CC30
C7C0
ENDCHAR

STARTCHAR char108
ENCODING 108
SWIDTH 21 0
DWIDTH 6 0
BBX 6 17 0 0
BITMAP
04
04
0C
08
18
18
10
30
30
20
60
60
40
C0
C0
80
78
ENDCHAR

STARTCHAR char109
ENCODING 109
SWIDTH 24 0
DWIDTH 17 0
BBX 18 10 -1 0
BITMAP
118600
329A00
249600
69A400
51C400
D34400
E38800
A28800
C708C0
820700
ENDCHAR

STARTCHAR char110
ENCODING 110
SWIDTH 3 0
DWIDTH 11 0
BBX 13 10 -1 0
BITMAP
0880
1380
3480
2880
6980
5100
5300
6200
A218
41E0
ENDCHAR

STARTCHAR char111
ENCODING 111
SWIDTH 3 0
DWIDTH 11 0
BBX 11 11 -1 0
BITMAP
0200
0D00
1580
3580
6580
6300
C100
C1E0
C200
C400
7800
ENDCHAR

STARTCHAR char112
ENCODING 112
SWIDTH 10 0
DWIDTH 13 0
BBX 13 16 -1 -5
BITMAP
0100
0780
1C40
2C60
4C60
4860
9840
10C0
7180
BF00
FDF0
2000
6000
4000
C000
8000
ENDCHAR

STARTCHAR char113
ENCODING 113
SWIDTH 6 0
DWIDTH 12 0
BBX 13 15 -1 -5
BITMAP
07A0
0840
10C0
20C0
6080
4180
C100
C100
C710
7A60
0280
0500
0500
0600
0400
ENDCHAR

STARTCHAR char114
ENCODING 114
SWIDTH 28 0
DWIDTH 8 0
BBX 9 10 0 0
BITMAP
1200
3600
6C00
6800
4800
D400
E400
A380
C000
8000
ENDCHAR

STARTCHAR char115
ENCODING 115
SWIDTH 28 0
DWIDTH 8 0
BBX 8 10 0 0
BITMAP
18
14
18
38
10
30
50
90
93
FC
ENDCHAR

STARTCHAR char116
ENCODING 116
SWIDTH 25 0
DWIDTH 7 0
BBX 7 14 0 0
BITMAP
08
18
10
30
30
7C
60
60
40
40
80
80
8C
70
ENDCHAR

STARTCHAR char117
ENCODING 117
SWIDTH 6 0
DWIDTH 12 0
BBX 12 10 0 0
BITMAP
3080
2180
6180
6300
4300
C200
8600
8600
8430
7BC0
ENDCHAR

STARTCHAR char118
ENCODING 118
SWIDTH 3 0
DWIDTH 11 0
BBX 11 10 0 0
BITMAP
1700
2500
6500
4500
4500
4200
8300
84E0
8800
F000
ENDCHAR

STARTCHAR char119
ENCODING 119
SWIDTH 21 0
DWIDTH 16 0
BBX 17 11 -1 0
BITMAP
000800
105400
309400
319400
219400
611400
410800
C30C00
C21380
8E6000
738000
ENDCHAR

STARTCHAR char120
ENCODING 120
SWIDTH 6 0
DWIDTH 12 0
BBX 13 10 -1 0
BITMAP
1860
E690
8310
03E0
0380
0600
3C00
4C00
9430
F3E0
ENDCHAR

STARTCHAR char121
ENCODING 121
SWIDTH 3 0
DWIDTH 11 0
BBX 11 15 0 -5
BITMAP
1080
2180
6100
6100
4300
4200
8600
8600
8460
7D80
0E00
0800
7000
B000
E000
ENDCHAR

STARTCHAR char122
ENCODING 122
SWIDTH 32 0
DWIDTH 9 0
BBX 10 10 0 0
BITMAP
1F00
6100
4600
4C00
3800
6000
C000
8000
F0C0
8F00
ENDCHAR

STARTCHAR char123
ENCODING 123
SWIDTH 28 0
DWIDTH 8 0
BBX 6 22 1 -5
BITMAP
3C
3C
30
30
30
30
30
30
30
60
C0
60
30
30
30
30
30
30
30
30
3C
1C
ENDCHAR

STARTCHAR char124
ENCODING 124
SWIDTH 21 0
DWIDTH 6 0
BBX 2 18 2 0
BITMAP
C0
C0
C0
C0
C0
C0
C0
C0
C0
C0
C0
C0
C0
C0
C0
C0
C0
C0
ENDCHAR

STARTCHAR char125
ENCODING 125
SWIDTH 28 0
DWIDTH 8 0
BBX 6 22 1 -5
BITMAP
E0
F0
30
30
30
30
30
30
38
1C
0C
18
38
30
30
30
30
30
30
30
F0
E0
ENDCHAR

STARTCHAR char126
ENCODING 126
SWIDTH 0 0
DWIDTH 0 0
BBX 8 3 0 19
BITMAP
01
73
4C
ENDCHAR

STARTCHAR char128
ENCODING 128
SWIDTH 17 0
DWIDTH 15 0
BBX 17 17 -3 0
BITMAP
007F80
00C080
010080
3B0000
070000
C4E000
3C1C00
1F8200
18E000
381000
300000
300000
300000
100000
100000
080180
07FE00
ENDCHAR

STARTCHAR char130
ENCODING 130
SWIDTH 17 0
DWIDTH 5 0
BBX 3 5 0 -3
BITMAP
20
60
20
40
40
ENDCHAR

STARTCHAR char131
ENCODING 131
SWIDTH 0 0
DWIDTH 0 0
BBX 5 3 1 19
BITMAP
30
50
48
ENDCHAR

STARTCHAR char132
ENCODING 132
SWIDTH 32 0
DWIDTH 9 0
BBX 8 5 -1 -3
BITMAP
11
33
22
22
44
ENDCHAR

STARTCHAR char133
ENCODING 133
SWIDTH 16 0
DWIDTH 25 0
BBX 19 3 3 0
BITMAP
E0E0E0
E0E0E0
E0E0E0
ENDCHAR

STARTCHAR char134
ENCODING 134
SWIDTH 32 0
DWIDTH 9 0
BBX 11 20 0 -3
BITMAP
0300
0300
0200
0200
0400
F7C0
E9C0
0800
0800
1800
3000
3000
2000
2000
2000
4000
4000
4000
8000
8000
ENDCHAR

STARTCHAR char136
ENCODING 136
SWIDTH 0 0
DWIDTH 0 0
BBX 5 3 -2 12
BITMAP
30
78
48
ENDCHAR

STARTCHAR char139
ENCODING 139
SWIDTH 28 0
DWIDTH 8 0
BBX 4 8 2 3
BITMAP
10
30
70
C0
C0
60
30
10
ENDCHAR

STARTCHAR char140
ENCODING 140
SWIDTH 16 0
DWIDTH 25 0
BBX 25 18 -1 0
BITMAP
00000E00
02F81980
05043080
0A023100
1A022100
32022600
24022400
60062000
60064000
C0078000
C00E0000
C00C0080
C01C0080
C0180080
C0380100
40780300
60CC0C00
1F03F000
ENDCHAR

STARTCHAR char145
ENCODING 145
SWIDTH 21 0
DWIDTH 6 0
BBX 3 5 3 13
BITMAP
20
40
40
C0
C0
ENDCHAR

STARTCHAR char146
ENCODING 146
SWIDTH 21 0
DWIDTH 6 0
BBX 4 5 3 13
BITMAP
70
30
20
40
40
ENDCHAR

STARTCHAR char147
ENCODING 147
SWIDTH 32 0
DWIDTH 9 0
BBX 7 5 3 13
BITMAP
24
44
C8
D8
98
ENDCHAR

STARTCHAR char148
ENCODING 148
SWIDTH 32 0
DWIDTH 9 0
BBX 7 5 3 13
BITMAP
76
22
22
44
88
ENDCHAR

STARTCHAR char149
ENCODING 149
SWIDTH 28 0
DWIDTH 8 0
BBX 7 6 1 6
BITMAP
38
7C
FE
FE
FE
38
ENDCHAR

STARTCHAR char150
ENCODING 150
SWIDTH 10 0
DWIDTH 13 0
BBX 11 1 0 5
BITMAP
FFE0
ENDCHAR

STARTCHAR char151
ENCODING 151
SWIDTH 21 0
DWIDTH 16 0
BBX 16 1 1 7
BITMAP
FFFF
ENDCHAR

STARTCHAR char152
ENCODING 152
SWIDTH 0 0
DWIDTH 0 0
BBX 7 2 -2 12
BITMAP
F2
9C
ENDCHAR

STARTCHAR char153
ENCODING 153
SWIDTH 2 0
DWIDTH 21 0
BBX 19 9 0 7
BITMAP
FFE060
9160C0
917140
105140
105940
104A40
104E40
104440
38E4E0
ENDCHAR

STARTCHAR char155
ENCODING 155
SWIDTH 28 0
DWIDTH 8 0
BBX 4 8 2 3
BITMAP
80
C0
70
30
30
70
C0
80
ENDCHAR

STARTCHAR char156
ENCODING 156
SWIDTH 17 0
DWIDTH 15 0
BBX 15 10 0 0
BITMAP
0E10
1168
2188
4190
4120
8340
8380
8600
8B0C
71F0
ENDCHAR

STARTCHAR char159
ENCODING 159
SWIDTH 2 0
DWIDTH 21 0
BBX 22 25 -1 -5
BITMAP
001980
001980
000000
07F01C
081018
101030
201030
403070
402060
8060E0
806160
80C140
80C2C0
8182C0
418480
210980
231180
0221F0
024700
03FA00
00C400
008C00
010800
013000
01C000
ENDCHAR

STARTCHAR char160
ENCODING 160
SWIDTH 21 0
DWIDTH 6 0
BBX 0 0 0 0
BITMAP
ENDCHAR

STARTCHAR char161
ENCODING 161
SWIDTH 28 0
DWIDTH 8 0
BBX 7 16 0 0
BITMAP
06
06
00
00
00
08
08
08
10
10
30
20
60
60
60
C0
ENDCHAR

STARTCHAR char162
ENCODING 162
SWIDTH 32 0
DWIDTH 9 0
BBX 10 14 -1 -2
BITMAP
0100
0100
0200
0F80
1280
3700
2600
6400
C800
C800
C980
7E00
1000
1000
ENDCHAR

STARTCHAR char163
ENCODING 163
SWIDTH 21 0
DWIDTH 16 0
BBX 16 17 0 0
BITMAP
003C
00C3
0101
0101
0100
0100
0100
0100
1FF8
0180
0080
0080
0080
0100
FE00
9F80
F9F8
ENDCHAR

STARTCHAR char164
ENCODING 164
SWIDTH 0 0
DWIDTH 0 0
BBX 5 3 2 19
BITMAP
38
30
40
ENDCHAR

STARTCHAR char165
ENCODING 165
SWIDTH 0 0
DWIDTH 0 0
BBX 5 3 2 19
BITMAP
88
50
60
ENDCHAR

STARTCHAR char167
ENCODING 167
SWIDTH 3 0
DWIDTH 11 0
BBX 12 22 -1 -4
BITMAP
00F0
0310
0210
0200
0200
0300
0300
1D80
1180
20C0
20C0
3040
1840
1880
0D80
0E00
0600
0200
0200
8200
8C00
F000
ENDCHAR

STARTCHAR char168
ENCODING 168
SWIDTH 0 0
DWIDTH 0 0
BBX 6 2 -2 11
BITMAP
CC
CC
ENDCHAR

STARTCHAR char169
ENCODING 169
SWIDTH 31 0
DWIDTH 19 0
BBX 16 16 1 0
BITMAP
07C0
1830
3008
4004
47E2
8C22
9821
9801
9801
9801
9801
CC22
47C2
2004
1818
0FE0
ENDCHAR

STARTCHAR char170
ENCODING 170
SWIDTH 0 0
DWIDTH 0 0
BBX 6 2 1 18
BITMAP
CC
CC
ENDCHAR

STARTCHAR char171
ENCODING 171
SWIDTH 35 0
DWIDTH 10 0
BBX 8 6 0 2
BITMAP
12
24
48
D8
6C
36
ENDCHAR

STARTCHAR char172
ENCODING 172
SWIDTH 24 0
DWIDTH 17 0
BBX 15 7 0 0
BITMAP
FFFE
0002
0002
0002
0002
0002
0002
ENDCHAR

STARTCHAR char174
ENCODING 174
SWIDTH 31 0
DWIDTH 19 0
BBX 16 16 1 0
BITMAP
07C0
1830
3008
6FC4
4462
8462
8461
84C1
8781
85C1
84E1
8462
4F72
2004
1018
0FE0
ENDCHAR

STARTCHAR char176
ENCODING 176
SWIDTH 21 0
DWIDTH 6 0
BBX 7 7 3 9
BITMAP
78
C4
82
82
82
C4
78
ENDCHAR

STARTCHAR char177
ENCODING 177
SWIDTH 10 0
DWIDTH 13 0
BBX 12 15 0 0
BITMAP
0200
0200
0200
0200
0200
0200
FFF0
0200
0200
0200
0200
0200
0000
0000
FFF0
ENDCHAR

STARTCHAR char180
ENCODING 180
SWIDTH 0 0
DWIDTH 0 0
BBX 4 4 0 11
BITMAP
70
60
80
80
ENDCHAR

STARTCHAR char182
ENCODING 182
SWIDTH 24 0
DWIDTH 17 0
BBX 11 21 2 -4
BITMAP
1FE0
3840
7840
F840
F840
F840
7840
7840
3840
0840
0840
0840
0840
0840
0840
0840
0840
0840
0840
0840
0840
ENDCHAR

STARTCHAR char183
ENCODING 183
SWIDTH 14 0
DWIDTH 4 0
BBX 3 3 2 6
BITMAP
E0
E0
E0
ENDCHAR

STARTCHAR char184
ENCODING 184
SWIDTH 0 0
DWIDTH 0 0
BBX 3 6 -4 -5
BITMAP
40
E0
60
60
40
80
ENDCHAR

STARTCHAR char186
ENCODING 186
SWIDTH 0 0
DWIDTH 0 0
BBX 8 3 0 19
BITMAP
01
73
4C
ENDCHAR

STARTCHAR char187
ENCODING 187
SWIDTH 35 0
DWIDTH 10 0
BBX 8 6 0 2
BITMAP
6C
36
1B
12
24
48
ENDCHAR

STARTCHAR char191
ENCODING 191
SWIDTH 35 0
DWIDTH 10 0
BBX 8 16 0 0
BITMAP
01
01
00
00
0E
01
03
06
0C
18
30
62
C2
82
84
78
ENDCHAR

STARTCHAR char192
ENCODING 192
SWIDTH 9 0
DWIDTH 23 0
BBX 23 22 -1 0
BITMAP
000C00
000600
000100
000000
00000C
000014
00002C
000028
000058
000058
000090
0000B0
000130
07FFFC
180260
200260
4004C0
C008C0
C011C0
C02180
C0C184
7F00F8
ENDCHAR

STARTCHAR char193
ENCODING 193
SWIDTH 9 0
DWIDTH 23 0
BBX 23 22 -1 0
BITMAP
0001C0
000180
000200
000000
00000C
000014
00002C
000028
000058
000058
000090
0000B0
000130
07FFFC
180260
200260
4004C0
C008C0
C011C0
C02180
C0C184
7F00F8
ENDCHAR

STARTCHAR char194
ENCODING 194
SWIDTH 9 0
DWIDTH 23 0
BBX 23 22 -1 0
BITMAP
000300
000500
000480
000000
00000C
000014
00002C
000028
000058
000058
000090
0000B0
000130
07FFFC
180260
200260
4004C0
C008C0
C011C0
C02180
C0C184
7F00F8
ENDCHAR

STARTCHAR char195
ENCODING 195
SWIDTH 9 0
DWIDTH 23 0
BBX 23 22 -1 0
BITMAP
000020
000E60
001180
000000
00000C
000014
00002C
000028
000058
000058
000090
0000B0
000130
07FFFC
180260
200260
4004C0
C008C0
C011C0
C02180
C0C184
7F00F8
ENDCHAR

STARTCHAR char196
ENCODING 196
SWIDTH 9 0
DWIDTH 23 0
BBX 24 21 -1 0
BITMAP
00001B
00001B
000000
00000C
000014
00002C
00002C
000058
000058
000098
0000B8
000130
07FFFC
180270
200260
4004C0
C008C0
C011C0
C02180
C0C184
7F00F8
ENDCHAR

STARTCHAR char197
ENCODING 197
SWIDTH 9 0
DWIDTH 23 0
BBX 24 23 -1 0
BITMAP
00000E
00001B
000011
00001B
00000E
00000C
000014
00002C
000028
000058
000058
000090
0000B0
000130
07FFFC
180260
200260
4004C0
C008C0
C011C0
C02180
C0C186
7F00F8
ENDCHAR

STARTCHAR char198
ENCODING 198
SWIDTH 24 0
DWIDTH 27 0
BBX 27 19 -1 0
BITMAP
00002380
0000E740
0000A640
00016C40
00016C40
00024880
0002C900
0004C900
00048800
00099000
01FFE000
0E118000
30130020
60220020
C0220020
C0420040
C04200C0
C1820380
7E01FC00
ENDCHAR

STARTCHAR char199
ENCODING 199
SWIDTH 17 0
DWIDTH 15 0
BBX 16 22 -1 -5
BITMAP
00FE
0301
0401
0C01
18C1
1103
3202
7404
680C
E808
C810
CC60
C380
C000
4000
3806
0FF8
0E00
0600
0600
0C00
1000
ENDCHAR

STARTCHAR char200
ENCODING 200
SWIDTH 17 0
DWIDTH 15 0
BBX 14 22 0 0
BITMAP
01C0
0060
0020
0000
0000
00FC
01C4
0188
0108
0130
0120
0100
0600
0800
3000
6000
C004
C004
C008
C018
4020
3FC0
ENDCHAR

STARTCHAR char201
ENCODING 201
SWIDTH 17 0
DWIDTH 15 0
BBX 14 22 0 0
BITMAP
0018
0030
0060
0000
0000
00FC
01C4
0188
0108
0130
0120
0100
0600
0800
3000
6000
C004
C004
C008
C018
4020
3FC0
ENDCHAR

STARTCHAR char202
ENCODING 202
SWIDTH 17 0
DWIDTH 15 0
BBX 14 22 0 0
BITMAP
0070
0050
0090
0000
0000
00FC
01C4
0188
0108
0130
0120
0100
0600
0800
3000
6000
C004
C004
C008
C018
4030
3FC0
ENDCHAR

STARTCHAR char203
ENCODING 203
SWIDTH 17 0
DWIDTH 15 0
BBX 14 20 0 0
BITMAP
0198
0198
0000
00FC
0184
0108
0108
0130
0120
0100
0600
0800
3000
6000
C004
C004
C008
C018
4020
3FC0
ENDCHAR

STARTCHAR char204
ENCODING 204
SWIDTH 21 0
DWIDTH 16 0
BBX 16 22 -1 0
BITMAP
0060
0030
0008
0000
0000
07F0
180F
2001
2003
0002
0002
0006
0006
000C
000C
000C
3FF8
4018
8036
8020
40C0
7F00
ENDCHAR

STARTCHAR char205
ENCODING 205
SWIDTH 21 0
DWIDTH 16 0
BBX 16 22 -1 0
BITMAP
000E
0018
0010
0000
0000
07F0
180F
2001
2003
0002
0002
0006
0006
000C
000C
000C
3FF8
4018
8036
8020
40C0
7F00
ENDCHAR

STARTCHAR char206
ENCODING 206
SWIDTH 21 0
DWIDTH 16 0
BBX 16 22 -1 0
BITMAP
0018
0028
0044
0000
0000
07F0
180F
2001
2003
0002
0002
0006
0006
000C
000C
000C
3FF8
4018
8036
8020
40C0
7F00
ENDCHAR

STARTCHAR char207
ENCODING 207
SWIDTH 21 0
DWIDTH 16 0
BBX 16 20 -1 0
BITMAP
0066
0066
0000
07F8
1807
2001
2001
0002
0002
0002
0006
0006
000E
000C
3FFC
4018
8036
8020
40C0
7F00
ENDCHAR

STARTCHAR char209
ENCODING 209
SWIDTH 9 0
DWIDTH 23 0
BBX 24 22 -1 0
BITMAP
000220
000FA0
0008C0
000000
000002
01F81C
0604E4
080508
100608
200410
400C20
401C60
802860
804840
8058C0
8098C0
80B080
813080
012080
026080
02C046
038078
ENDCHAR

STARTCHAR char210
ENCODING 210
SWIDTH 21 0
DWIDTH 16 0
BBX 15 22 -1 0
BITMAP
0060
0030
0008
0000
0000
02FC
0502
0602
0A02
1202
3402
6002
6006
E004
C004
C00C
C008
C018
C010
4020
20C0
1F00
ENDCHAR

STARTCHAR char211
ENCODING 211
SWIDTH 21 0
DWIDTH 16 0
BBX 15 22 -1 0
BITMAP
000C
0018
0010
0000
0000
02FC
0502
0602
0A02
1202
3402
6002
6006
E004
C004
C00C
C008
C018
C010
4020
20C0
1F00
ENDCHAR

STARTCHAR char212
ENCODING 212
SWIDTH 21 0
DWIDTH 16 0
BBX 15 22 -1 0
BITMAP
0018
0028
0044
0000
0000
02FC
0502
0602
0A02
1202
3402
6002
6006
E004
C004
C00C
C008
C018
C010
4020
20C0
1F00
ENDCHAR

STARTCHAR char213
ENCODING 213
SWIDTH 21 0
DWIDTH 16 0
BBX 16 22 -1 0
BITMAP
0001
0073
008C
0000
0000
02FC
0502
0602
0A02
1202
3402
6002
6006
E004
C004
C00C
C008
C018
C010
4020
20C0
1F00
ENDCHAR

STARTCHAR char214
ENCODING 214
SWIDTH 21 0
DWIDTH 16 0
BBX 15 21 -1 0
BITMAP
00CC
00CC
0000
0000
02FC
0502
0602
0A02
1202
3402
6002
6006
E004
C004
C00C
C008
C018
C030
4020
20C0
1F00
ENDCHAR

STARTCHAR char216
ENCODING 216
SWIDTH 21 0
DWIDTH 16 0
BBX 16 17 -1 0
BITMAP
02FE
0304
0D0A
1E12
1A12
3222
7042
6086
E104
C204
C40C
C408
C818
D010
6020
70C0
8F00
ENDCHAR

STARTCHAR char217
ENCODING 217
SWIDTH 6 0
DWIDTH 22 0
BBX 23 22 -1 0
BITMAP
001C00
000600
000200
000000
000004
00FC04
07040C
080408
100C38
200830
401830
401070
8030A0
8020E0
806140
8042C0
80C280
808580
418900
411100
012106
01C0F8
ENDCHAR

STARTCHAR char218
ENCODING 218
SWIDTH 6 0
DWIDTH 22 0
BBX 23 22 -1 0
BITMAP
000180
000300
000400
000000
000004
00FC04
07040C
080408
100C38
200830
401830
401070
8030A0
8020E0
806140
8042C0
80C280
808580
418900
411100
012106
01C0F8
ENDCHAR

STARTCHAR char219
ENCODING 219
SWIDTH 6 0
DWIDTH 22 0
BBX 23 22 -1 0
BITMAP
000200
000500
000880
000000
000004
00FC04
07040C
080408
100C38
200830
401830
401070
8030E0
8020E0
806140
8042C0
80C280
808580
818900
011100
012106
01C0F8
ENDCHAR

STARTCHAR char220
ENCODING 220
SWIDTH 6 0
DWIDTH 22 0
BBX 23 21 -1 0
BITMAP
000198
000198
000000
000004
00FC04
07040C
080408
100C38
200830
401830
401070
8030A0
8060E0
806140
80C2C0
80C280
808580
418900
411100
012106
01C0F8
ENDCHAR

STARTCHAR char223
ENCODING 223
SWIDTH 13 0
DWIDTH 14 0
BBX 14 21 -1 -4
BITMAP
00F0
0130
0230
0260
0440
0480
0D00
0900
0B80
1860
1830
1030
1030
3030
7FE0
A0D8
7F00
6000
4000
4000
8000
ENDCHAR

STARTCHAR char224
ENCODING 224
SWIDTH 6 0
DWIDTH 12 0
BBX 13 15 -1 0
BITMAP
0E00
0600
0300
0100
0000
03A0
0C60
10C0
30C0
6080
6180
C180
C100
C718
79F0
ENDCHAR

STARTCHAR char225
ENCODING 225
SWIDTH 6 0
DWIDTH 12 0
BBX 13 15 -1 0
BITMAP
00C0
0180
0300
0200
0000
07A0
0840
10C0
30C0
6080
6180
C180
C100
C718
79F0
ENDCHAR

STARTCHAR char226
ENCODING 226
SWIDTH 6 0
DWIDTH 12 0
BBX 13 15 -1 0
BITMAP
0180
0380
0480
0440
0000
03A0
0C60
10C0
30C0
6080
6180
C180
C100
C718
79F0
ENDCHAR

STARTCHAR char227
ENCODING 227
SWIDTH 6 0
DWIDTH 12 0
BBX 13 14 -1 0
BITMAP
0F20
09C0
0000
0000
07A0
0840
10C0
30C0
6080
6180
C180
C100
C718
79F0
ENDCHAR

STARTCHAR char228
ENCODING 228
SWIDTH 6 0
DWIDTH 12 0
BBX 13 13 -1 0
BITMAP
0660
0660
0000
07A0
0860
1040
30C0
60C0
6180
C180
C100
C718
79F0
ENDCHAR

STARTCHAR char229
ENCODING 229
SWIDTH 6 0
DWIDTH 12 0
BBX 13 15 -1 0
BITMAP
0180
0240
0240
0180
0000
07A0
0840
10C0
30C0
6080
6180
C180
C100
C718
79F0
ENDCHAR

STARTCHAR char230
ENCODING 230
SWIDTH 17 0
DWIDTH 15 0
BBX 15 10 -1 0
BITMAP
037C
0CE4
10C4
20C8
6198
61A0
C1C0
C300
C706
79FC
ENDCHAR

STARTCHAR char231
ENCODING 231
SWIDTH 32 0
DWIDTH 9 0
BBX 10 15 -1 -5
BITMAP
0700
0880
1080
3100
2200
6400
6000
6000
61C0
3E00
3000
3000
3000
2000
4000
ENDCHAR

STARTCHAR char232
ENCODING 232
SWIDTH 28 0
DWIDTH 8 0
BBX 9 15 -1 0
BITMAP
1800
0800
0400
0200
0000
0E00
1200
3200
6400
4C00
D000
E000
C000
C180
7E00
ENDCHAR

STARTCHAR char233
ENCODING 233
SWIDTH 28 0
DWIDTH 8 0
BBX 9 15 -1 0
BITMAP
0300
0600
0C00
0800
0000
0E00
1200
3200
6400
4C00
D000
E000
C000
C380
7C00
ENDCHAR

STARTCHAR char234
ENCODING 234
SWIDTH 28 0
DWIDTH 8 0
BBX 9 15 -1 0
BITMAP
0E00
0E00
1200
0000
0000
0E00
1200
3200
6400
4C00
D000
E000
C000
C380
7C00
ENDCHAR

STARTCHAR char235
ENCODING 235
SWIDTH 28 0
DWIDTH 8 0
BBX 9 13 -1 0
BITMAP
3300
3300
0000
0E00
1200
2200
6400
4C00
D000
E000
C000
C380
7C00
ENDCHAR

STARTCHAR char236
ENCODING 236
SWIDTH 21 0
DWIDTH 6 0
BBX 6 15 0 0
BITMAP
60
20
10
08
00
10
30
60
60
40
40
C0
80
8C
70
ENDCHAR

STARTCHAR char237
ENCODING 237
SWIDTH 21 0
DWIDTH 6 0
BBX 6 15 0 0
BITMAP
0C
18
30
20
00
10
30
60
60
40
40
C0
80
8C
70
ENDCHAR

STARTCHAR char238
ENCODING 238
SWIDTH 21 0
DWIDTH 6 0
BBX 6 15 0 0
BITMAP
18
28
28
00
00
10
30
60
60
40
40
C0
80
8C
70
ENDCHAR

STARTCHAR char239
ENCODING 239
SWIDTH 21 0
DWIDTH 6 0
BBX 6 13 0 0
BITMAP
4C
4C
00
10
30
60
60
40
40
C0
80
8C
70
ENDCHAR

STARTCHAR char241
ENCODING 241
SWIDTH 3 0
DWIDTH 11 0
BBX 13 14 -1 0
BITMAP
0F40
1180
0000
0000
0880
1380
3480
2880
6980
5100
5300
6200
A218
41E0
ENDCHAR

STARTCHAR char242
ENCODING 242
SWIDTH 3 0
DWIDTH 11 0
BBX 12 15 -1 0
BITMAP
0C00
0600
0200
0200
0200
0D00
1500
3500
6500
6300
C100
C3F0
C200
C400
7800
ENDCHAR

STARTCHAR char243
ENCODING 243
SWIDTH 3 0
DWIDTH 11 0
BBX 11 15 -1 0
BITMAP
0180
0300
0200
0400
0200
0D00
1500
3500
6500
6300
C100
C3E0
C200
C400
7800
ENDCHAR

STARTCHAR char244
ENCODING 244
SWIDTH 3 0
DWIDTH 11 0
BBX 11 15 -1 0
BITMAP
0200
0500
0500
0000
0200
0D00
1500
3500
6500
6300
C100
C3E0
C200
C400
7800
ENDCHAR

STARTCHAR char245
ENCODING 245
SWIDTH 3 0
DWIDTH 11 0
BBX 11 14 -1 0
BITMAP
0F40
1180
0000
0200
0D00
1500
3500
6500
6300
C100
C3E0
C200
C400
7800
ENDCHAR

STARTCHAR char246
ENCODING 246
SWIDTH 3 0
DWIDTH 11 0
BBX 11 13 -1 0
BITMAP
0980
0D80
0200
0D00
1500
3500
6500
6300
C100
C3E0
C200
C400
7800
ENDCHAR

STARTCHAR char247
ENCODING 247
SWIDTH 10 0
DWIDTH 13 0
BBX 12 10 0 1
BITMAP
0E00
0E00
0E00
0000
FFF0
0000
0000
0E00
0E00
0E00
ENDCHAR

STARTCHAR char248
ENCODING 248
SWIDTH 3 0
DWIDTH 11 0
BBX 10 12 -1 -1
BITMAP
0340
0D80
0D80
1580
2680
6780
4900
C980
D200
E400
7800
8000
ENDCHAR

STARTCHAR char249
ENCODING 249
SWIDTH 6 0
DWIDTH 12 0
BBX 12 15 0 0
BITMAP
1C00
0C00
0200
0200
0000
1080
2180
6100
6300
4300
C200
8600
8600
8430
7BC0
ENDCHAR

STARTCHAR char250
ENCODING 250
SWIDTH 6 0
DWIDTH 12 0
BBX 12 15 0 0
BITMAP
0380
0300
0400
0400
0000
1080
2180
6100
6300
4300
C200
8600
8600
8430
7BC0
ENDCHAR

STARTCHAR char251
ENCODING 251
SWIDTH 6 0
DWIDTH 12 0
BBX 12 15 0 0
BITMAP
0600
0700
0900
0000
0000
1080
2180
6100
6300
4300
C200
8600
8600
8430
7BC0
ENDCHAR

STARTCHAR char252
ENCODING 252
SWIDTH 6 0
DWIDTH 12 0
BBX 12 13 0 0
BITMAP
1980
1980
0000
2080
2180
6180
6300
4300
C200
8600
8600
8C30
73C0
ENDCHAR

STARTCHAR char255
ENCODING 255
SWIDTH 3 0
DWIDTH 11 0
BBX 11 18 0 -5
BITMAP
1B00
1B00
0000
1080
2180
6300
6300
4200
4200
C600
8400
8C60
7580
0E00
0800
7000
B000
E000
ENDCHAR
ENDFONT
